<svg version="1.1" viewBox="0.0 0.0 665.0629921259842 111.56167979002625" fill="none" stroke="none" stroke-linecap="square" stroke-miterlimit="10" xmlns:xlink="http://www.w3.org/1999/xlink" xmlns="http://www.w3.org/2000/svg"><clipPath id="p.0"><path d="m0 0l665.063 0l0 111.561676l-665.063 0l0 -111.561676z" clip-rule="nonzero"/></clipPath><g clip-path="url(#p.0)"><path fill="#000000" fill-opacity="0.0" d="m0 0l665.063 0l0 111.561676l-665.063 0z" fill-rule="evenodd"/><path fill="#000000" fill-opacity="0.0" d="m0 0l665.07086 0l0 111.55905l-665.07086 0z" fill-rule="evenodd"/><path fill="#000000" d="m44.76245 66.40937q-0.203125 -0.921875 0.6875 -1.109375q0.90625 -0.1875 1.109375 0.796875q-0.796875 0.625 -1.171875 0.234375q0.34375 0.03125 -0.625 0.078125zm32.78125 -23.125q-0.34375 3.59375 -1.875 7.484375q-1.53125 3.875 -4.234375 7.484375q-2.703125 3.609375 -6.5625 6.71875q-3.84375 3.109375 -7.484375 4.234375q0.3125 -0.0625 0.96875 1.515625q0.671875 1.5625 1.15625 3.546875q0.71875 2.546875 1.234375 5.265625q0.53125 2.703125 0.875 5.234375q0.359375 2.515625 0.625 4.671875q0.28125 2.15625 0.4375 3.5625q0.21875 1.671875 0.96875 2.28125q0.765625 0.609375 1.875 0.6875q1.109375 0.09375 2.375 -0.296875q1.265625 -0.390625 2.828125 0.578125q0.640625 0.640625 0.15625 2.140625q-0.46875 1.515625 -1.9375 3.109375q-1.46875 1.609375 -3.671875 2.875q-2.203125 1.265625 -5.046875 0.78125q-1.921875 -0.296875 -3.453125 -1.328125q-1.515625 -1.03125 -2.578125 -2.921875q-1.046875 -1.875 -1.640625 -4.5625q-0.59375 -2.6875 -0.75 -6.4375q-0.15625 -4.84375 -0.34375 -9.109375q-0.1875 -4.28125 -1.578125 -7.78125q-0.234375 -0.625 -0.4375 -1.109375q-0.1875 -0.5 0.609375 -0.84375q-2.59375 1.515625 -5.4375 1.6875q-0.3125 1.703125 -0.9375 4.84375q-0.625 3.140625 -1.296875 6.140625q-0.671875 3.0 -1.4375 5.671875q-0.75 2.671875 -1.484375 4.625q-0.921875 2.296875 -2.5 3.859375q-1.5625 1.578125 -4.90625 1.578125q-2.015625 0 -3.5 -0.890625q-1.484375 -0.890625 -3.921875 -3.671875q1.734375 -1.3125 2.265625 -1.71875q0.53125 -0.40625 1.3125 -1.734375q0.78125 -1.3125 1.78125 -4.015625q1.015625 -2.6875 2.078125 -7.3125q0.40625 -1.96875 1.0625 -4.609375q0.671875 -2.640625 1.140625 -4.515625q-2.9375 -1.625 -2.625 -5.59375q0.21875 -2.484375 2.125 -4.078125q1.90625 -1.609375 3.40625 -1.9375q0.765625 -3.078125 1.8125 -7.21875q1.0625 -4.140625 2.0 -7.78125q0.9375 -3.640625 1.71875 -6.578125q0.796875 -2.9375 1.8125 -2.75q0.640625 0.796875 -0.71875 1.921875q-1.21875 1.0 -2.625 2.25q-1.390625 1.234375 -3.59375 3.703125q-2.046875 -1.53125 -2.53125 -2.203125q-0.484375 -0.6875 -0.734375 -1.09375q-0.421875 -0.65625 -0.609375 -1.296875q-0.65625 -1.3125 -0.65625 -3.21875q0 -1.921875 2.578125 -3.75q1.046875 -0.71875 3.1875 -2.09375q2.15625 -1.375 5.328125 -2.671875q3.1875 -1.3125 7.359375 -2.28125q4.1875 -0.984375 9.296875 -0.984375q5.40625 0 8.828125 2.203125q3.421875 2.1875 5.234375 5.3125q1.8125 3.109375 2.359375 6.5q0.5625 3.375 0.3125 5.921875zm-24.96875 19.34375q1.59375 -0.765625 4.140625 -2.609375q2.546875 -1.84375 4.59375 -4.40625q2.046875 -2.5625 3.4375 -5.8125q1.390625 -3.25 1.75 -7.359375q0.296875 -3.578125 -0.421875 -5.84375q-0.703125 -2.265625 -2.015625 -3.546875q-1.3125 -1.28125 -3.046875 -1.84375q-1.71875 -0.5625 -3.484375 -0.5625q-1.640625 0 -3.375 0.5q-1.734375 0.484375 -3.859375 -0.21875q0.859375 -1.359375 1.5625 -0.65625q0.296875 0.4375 0.5625 0.9375q0.28125 0.484375 0.46875 1.484375q-1.875 7.90625 -2.96875 12.984375q-1.078125 5.078125 -1.796875 8.28125q-0.84375 3.71875 -1.234375 6.0q-0.078125 0.265625 -0.109375 0.5625q-0.03125 0.296875 -1.28125 0.125q1.765625 -0.890625 3.84375 0.015625q2.078125 0.90625 3.234375 1.96875z" fill-rule="nonzero"/><path fill="#000000" d="m94.76245 86.44062q-5.828125 0 -10.46875 -2.328125q-4.640625 -2.34375 -7.265625 -6.46875q-2.625 -4.125 -2.625 -9.375q0 -5.25 2.625 -9.375q2.625 -4.140625 7.265625 -6.4375q4.640625 -2.296875 10.46875 -2.296875q5.875 0 10.515625 2.296875q4.640625 2.296875 7.234375 6.4375q2.59375 4.125 2.59375 9.375q0 5.25 -2.59375 9.375q-2.59375 4.125 -7.234375 6.46875q-4.640625 2.328125 -10.515625 2.328125zm0 -11.265625q2.484375 0 4.078125 -1.8125q1.609375 -1.828125 1.609375 -5.09375q0 -3.265625 -1.609375 -5.0625q-1.59375 -1.796875 -4.078125 -1.796875q-2.5 0 -4.109375 1.796875q-1.59375 1.796875 -1.59375 5.0625q0 3.265625 1.59375 5.09375q1.609375 1.8125 4.109375 1.8125zm38.579422 11.265625q-4.46875 0 -8.828125 -0.953125q-4.34375 -0.96875 -7.03125 -2.5l3.953125 -9.546875q2.4375 1.484375 5.765625 2.3125q3.328125 0.828125 6.46875 0.828125q2.5 0 3.484375 -0.40625q1.0 -0.421875 1.0 -1.25q0 -0.84375 -1.25 -1.15625q-1.25 -0.328125 -4.0625 -0.640625q-4.296875 -0.515625 -7.3125 -1.3125q-3.0 -0.796875 -5.28125 -3.09375q-2.265625 -2.3125 -2.265625 -6.609375q0 -3.390625 2.046875 -6.078125q2.046875 -2.6875 6.109375 -4.28125q4.078125 -1.59375 9.765625 -1.59375q3.96875 0 7.78125 0.734375q3.8125 0.734375 6.5 2.140625l-3.96875 9.53125q-4.609375 -2.5625 -10.125 -2.5625q-4.734375 0 -4.734375 1.671875q0 0.828125 1.28125 1.1875q1.28125 0.34375 4.03125 0.671875q4.296875 0.5 7.265625 1.34375q2.984375 0.828125 5.25 3.140625q2.28125 2.296875 2.28125 6.578125q0 3.265625 -2.0625 5.953125q-2.046875 2.6875 -6.140625 4.296875q-4.09375 1.59375 -9.921875 1.59375zm38.144318 -36.28125q9.21875 0 14.078125 4.125q4.875 4.125 4.875 12.703125l0 18.8125l-13.4375 0l0 -4.609375q-2.5 5.25 -9.921875 5.25q-4.171875 0 -7.078125 -1.4375q-2.90625 -1.4375 -4.421875 -3.90625q-1.5 -2.46875 -1.5 -5.53125q0 -5.1875 3.96875 -7.875q3.96875 -2.6875 12.03125 -2.6875l5.828125 0q-0.703125 -4.09375 -6.59375 -4.09375q-2.359375 0 -4.796875 0.734375q-2.4375 0.734375 -4.15625 2.015625l-4.609375 -9.546875q3.0 -1.84375 7.25 -2.890625q4.265625 -1.0625 8.484375 -1.0625zm-0.0625 27.578125q1.546875 0 2.75 -0.828125q1.21875 -0.84375 1.796875 -2.5l0 -2.4375l-3.578125 0q-4.421875 0 -4.421875 2.953125q0 1.21875 0.921875 2.015625q0.9375 0.796875 2.53125 0.796875zm39.03656 -23.171875q3.84375 -4.40625 11.328125 -4.40625l0 12.796875q-1.71875 -0.265625 -3.1875 -0.265625q-7.4375 0 -7.4375 7.5625l0 15.546875l-14.453125 0l0 -35.015625l13.75 0l0 3.78125zm15.433945 -3.78125l14.453125 0l0 35.015625l-14.453125 0l0 -35.015625zm7.21875 -2.8125q-3.90625 0 -6.3125 -2.078125q-2.390625 -2.078125 -2.390625 -5.28125q0 -3.203125 2.390625 -5.28125q2.40625 -2.078125 6.3125 -2.078125q3.96875 0 6.328125 1.984375q2.375 1.984375 2.375 5.125q0 3.328125 -2.375 5.46875q-2.359375 2.140625 -6.328125 2.140625zm32.145233 38.46875q-5.828125 0 -10.468765 -2.328125q-4.640625 -2.34375 -7.265625 -6.46875q-2.625 -4.125 -2.625 -9.375q0 -5.25 2.625 -9.375q2.625 -4.140625 7.265625 -6.4375q4.6406403 -2.296875 10.468765 -2.296875q5.875 0 10.515625 2.296875q4.640625 2.296875 7.234375 6.4375q2.59375 4.125 2.59375 9.375q0 5.25 -2.59375 9.375q-2.59375 4.125 -7.234375 6.46875q-4.640625 2.328125 -10.515625 2.328125zm0 -11.265625q2.484375 0 4.078125 -1.8125q1.609375 -1.828125 1.609375 -5.09375q0 -3.265625 -1.609375 -5.0625q-1.59375 -1.796875 -4.078125 -1.796875q-2.5 0 -4.109375 1.796875q-1.59375 1.796875 -1.59375 5.0625q0 3.265625 1.59375 5.09375q1.609375 1.8125 4.109375 1.8125z" fill-rule="nonzero"/><path fill="#000000" d="m307.11566 95.549995q-1.296875 -0.875 -1.375 -2.078125q-0.09375 -1.203125 0.453125 -2.140625q0.40625 -0.828125 1.265625 -1.671875q0.359375 -0.328125 1.125 -2.34375q0.78125 -2.0 1.734375 -5.109375q0.96875 -3.125 1.9375 -6.84375q0.96875 -3.734375 1.828125 -7.296875q0.859375 -3.578125 1.46875 -6.59375q0.625 -3.03125 0.9375 -4.796875q0.390625 -2.203125 0.859375 -4.765625q0.375 -2.25 0.84375 -5.234375q0.46875 -2.984375 0.953125 -7.5625l7.109375 -3.1875q2.65625 -1.25 3.75 0.5625q1.109375 1.796875 0.4375 5.21875q-0.234375 1.40625 -0.859375 4.59375q-0.625 3.171875 -1.453125 6.984375q-0.828125 3.796875 -1.734375 7.765625q-0.890625 3.96875 -1.765625 7.046875q-0.78125 2.890625 -1.796875 6.640625q-1.796875 6.421875 -4.8125 16.84375q0.265625 0.4375 2.28125 0.4375q2.84375 0 6.84375 -2.3125q4.015625 -2.3125 7.90625 -7.09375q3.890625 -4.796875 6.875 -12.09375q3.0 -7.3125 3.75 -17.125q0.375 -5.21875 -0.5 -9.078125q-0.875 -3.875 -2.578125 -6.375q-1.703125 -2.515625 -4.109375 -3.734375q-2.40625 -1.21875 -5.375 -1.21875q-7.328125 0 -17.796875 8.140625l-0.609375 -10.3125q2.71875 -3.03125 5.546875 -4.34375q2.828125 -1.3125 5.234375 -1.96875q2.859375 -0.765625 5.796875 -0.84375q5.359375 0 10.34375 2.0625q4.984375 2.046875 8.625 6.234375q3.640625 4.171875 5.53125 10.390625q1.890625 6.21875 1.328125 14.40625q-0.328125 4.734375 -1.90625 9.78125q-1.578125 5.046875 -4.109375 9.875q-2.53125 4.8125 -6.0 9.171875q-3.46875 4.34375 -7.625 7.640625q-4.140625 3.3125 -8.9375 5.25q-4.78125 1.9375 -10.0 1.9375q-1.703125 -0.09375 -3.578125 -0.609375q-1.65625 -0.421875 -3.703125 -1.453125q-2.03125 -1.015625 -4.140625 -2.796875z" fill-rule="nonzero"/><path fill="#000000" d="m397.22504 68.268745q0 0.3125 -0.203125 3.390625l-24.3125 0q0.765625 1.984375 2.546875 3.046875q1.796875 1.046875 4.484375 1.046875q2.3125 0 3.875 -0.578125q1.578125 -0.578125 3.421875 -1.984375l7.5625 7.625q-5.125 5.625 -15.296875 5.625q-6.34375 0 -11.140625 -2.328125q-4.796875 -2.34375 -7.421875 -6.5q-2.625 -4.171875 -2.625 -9.34375q0 -5.25 2.59375 -9.375q2.59375 -4.140625 7.09375 -6.4375q4.515625 -2.296875 10.15625 -2.296875q5.3125 0 9.6875 2.109375q4.390625 2.109375 6.984375 6.203125q2.59375 4.09375 2.59375 9.796875zm-19.140625 -8.265625q-2.234375 0 -3.71875 1.21875q-1.46875 1.21875 -1.90625 3.453125l11.25 0q-0.4375 -2.171875 -1.921875 -3.421875q-1.46875 -1.25 -3.703125 -1.25z" fill-rule="nonzero"/><path fill="#000000" d="m434.95447 100.331245q-4.359375 0 -7.875 -2.09375q-3.515625 -2.078125 -5.9375 -5.640625q-2.40625 -3.546875 -3.609375 -8.203125q-1.1875 -4.671875 -1.03125 -9.90625q0.15625 -4.828125 1.234375 -10.421875q1.078125 -5.59375 3.078125 -11.21875q2.0 -5.625 4.84375 -10.890625q2.859375 -5.265625 6.609375 -9.34375q3.765625 -4.09375 8.4375 -6.640625q4.6875 -2.546875 10.34375 -2.546875q3.640625 0 6.234375 1.5q2.59375 1.5 4.15625 3.90625q1.5625 2.40625 2.15625 5.3125q0.59375 2.90625 0.515625 5.859375q-0.171875 2.75 -0.796875 5.359375q-0.625 2.59375 -1.828125 4.765625q-1.1875 2.15625 -3.078125 3.5625q-1.890625 1.40625 -4.453125 1.40625q-1.421875 -0.125 -2.609375 -0.875q-0.984375 -0.59375 -1.984375 -1.734375q-1.0 -1.140625 -2.40625 -4.734375q3.09375 -1.25 4.109375 -3.046875q1.015625 -1.8125 1.59375 -3.953125q0.65625 -2.5 0.875 -5.609375q0.125 -2.453125 -0.859375 -3.4375q-0.984375 -0.984375 -2.171875 -0.984375q-3.015625 0 -6.75 3.515625q-3.71875 3.5 -7.09375 9.828125q-3.359375 6.3125 -5.703125 14.8125q-2.328125 8.484375 -2.703125 17.984375q-0.15625 4.140625 0.515625 6.9375q0.6875 2.78125 1.84375 4.421875q1.15625 1.65625 2.515625 2.328125q1.359375 0.6875 2.6875 0.6875q2.359375 0 4.5 -1.046875q2.15625 -1.03125 4.0 -2.640625q1.859375 -1.59375 3.203125 -3.3125q1.359375 -1.71875 2.078125 -3.0q0.84375 -1.546875 2.171875 -2.046875q1.34375 -0.515625 2.421875 0.296875q1.09375 0.8125 1.359375 2.140625q0.28125 1.3125 -0.421875 2.84375q-1.40625 2.796875 -3.421875 5.578125q-2.0 2.78125 -4.546875 5.0625q-2.53125 2.296875 -5.625 3.75q-3.078125 1.46875 -6.578125 1.46875z" fill-rule="nonzero"/><path fill="#000000" d="m487.92322 50.15937q6.46875 0 10.40625 3.90625q3.9375 3.890625 3.9375 11.765625l0 19.96875l-14.46875 0l0 -17.46875q0 -6.015625 -4.28125 -6.015625q-2.4375 0 -3.953125 1.703125q-1.5 1.6875 -1.5 5.328125l0 16.453125l-14.453125 0l0 -47.484375l14.453125 0l0 15.296875q4.046875 -3.453125 9.859375 -3.453125zm20.615417 0.625l14.453125 0l0 35.015625l-14.453125 0l0 -35.015625zm7.21875 -2.8125q-3.90625 0 -6.3125 -2.078125q-2.390625 -2.078125 -2.390625 -5.28125q0 -3.203125 2.390625 -5.28125q2.40625 -2.078125 6.3125 -2.078125q3.96875 0 6.328125 1.984375q2.375 1.984375 2.375 5.125q0 3.328125 -2.375 5.46875q-2.359375 2.140625 -6.328125 2.140625zm29.317078 2.1875q9.21875 0 14.078125 4.125q4.875 4.125 4.875 12.703125l0 18.8125l-13.4375 0l0 -4.609375q-2.5 5.25 -9.921875 5.25q-4.171875 0 -7.078125 -1.4375q-2.90625 -1.4375 -4.421875 -3.90625q-1.5 -2.46875 -1.5 -5.53125q0 -5.1875 3.96875 -7.875q3.96875 -2.6875 12.03125 -2.6875l5.828125 0q-0.703125 -4.09375 -6.59375 -4.09375q-2.359375 0 -4.796875 0.734375q-2.4375 0.734375 -4.15625 2.015625l-4.609375 -9.546875q3.0 -1.84375 7.25 -2.890625q4.265625 -1.0625 8.484375 -1.0625zm-0.0625 27.578125q1.546875 0 2.75 -0.828125q1.21875 -0.84375 1.796875 -2.5l0 -2.4375l-3.578125 0q-4.421875 0 -4.421875 2.953125q0 1.21875 0.921875 2.015625q0.9375 0.796875 2.53125 0.796875zm39.03656 -23.171875q3.84375 -4.40625 11.328125 -4.40625l0 12.796875q-1.71875 -0.265625 -3.1875 -0.265625q-7.4375 0 -7.4375 7.5625l0 15.546875l-14.453125 0l0 -35.015625l13.75 0l0 3.78125zm30.785828 -4.40625q9.21875 0 14.078125 4.125q4.875 4.125 4.875 12.703125l0 18.8125l-13.4375 0l0 -4.609375q-2.5 5.25 -9.921875 5.25q-4.171875 0 -7.078125 -1.4375q-2.90625 -1.4375 -4.421875 -3.90625q-1.5 -2.46875 -1.5 -5.53125q0 -5.1875 3.96875 -7.875q3.96875 -2.6875 12.03125 -2.6875l5.828125 0q-0.703125 -4.09375 -6.59375 -4.09375q-2.359375 0 -4.796875 0.734375q-2.4375 0.734375 -4.15625 2.015625l-4.609375 -9.546875q3.0 -1.84375 7.25 -2.890625q4.265625 -1.0625 8.484375 -1.0625zm-0.0625 27.578125q1.546875 0 2.75 -0.828125q1.21875 -0.84375 1.796875 -2.5l0 -2.4375l-3.578125 0q-4.421875 0 -4.421875 2.953125q0 1.21875 0.921875 2.015625q0.9375 0.796875 2.53125 0.796875z" fill-rule="nonzero"/></g></svg>