<svg viewBox="0 0 665.063 111.562" fill="none" stroke-linecap="square" stroke-miterlimit="10" xmlns="http://www.w3.org/2000/svg"><clipPath id="a"><path d="M0 0h665.063v111.562H0V0z"/></clipPath><g clip-path="url(#a)"><path d="M0 0h665.063v111.562H0z"/><path d="M0 0h665.07v111.559H0z"/><path fill="#000" d="M44.762 66.41q-.203-.923.688-1.11.906-.188 1.11.797-.798.625-1.173.234.344.031-.625.078zm32.782-23.126q-.344 3.594-1.875 7.485-1.532 3.875-4.235 7.484-2.703 3.61-6.562 6.719-3.844 3.11-7.485 4.234.313-.062.97 1.516.671 1.562 1.155 3.547.72 2.547 1.235 5.265.531 2.703.875 5.235.36 2.515.625 4.672.281 2.156.437 3.562.22 1.672.97 2.281.765.61 1.874.688 1.11.094 2.375-.297 1.266-.39 2.828.578.64.64.156 2.14-.468 1.516-1.937 3.11-1.469 1.61-3.672 2.875-2.203 1.266-5.047.781-1.922-.297-3.453-1.328-1.516-1.031-2.578-2.922-1.047-1.875-1.64-4.562-.594-2.688-.75-6.438-.157-4.843-.344-9.109-.188-4.281-1.579-7.781-.234-.625-.437-1.11-.188-.5.61-.843-2.594 1.515-5.438 1.687-.313 1.703-.938 4.844-.625 3.14-1.297 6.14-.671 3-1.437 5.672-.75 2.672-1.484 4.625-.922 2.297-2.5 3.86-1.563 1.578-4.907 1.578-2.015 0-3.5-.89-1.484-.891-3.922-3.673 1.735-1.312 2.266-1.718.531-.407 1.313-1.735.78-1.312 1.78-4.015 1.016-2.688 2.079-7.313.406-1.969 1.062-4.61.672-2.64 1.141-4.515-2.937-1.625-2.625-5.594.219-2.484 2.125-4.078 1.906-1.61 3.406-1.937.766-3.078 1.813-7.219 1.062-4.14 2-7.781.937-3.64 1.719-6.578.796-2.938 1.812-2.75.64.796-.719 1.921-1.218 1-2.625 2.25-1.39 1.235-3.593 3.704-2.047-1.532-2.532-2.204-.484-.687-.734-1.093-.422-.657-.61-1.297-.656-1.313-.656-3.219 0-1.922 2.578-3.75 1.047-.719 3.188-2.094 2.156-1.375 5.328-2.672 3.188-1.312 7.36-2.28 4.187-.985 9.296-.985 5.407 0 8.828 2.203 3.422 2.187 5.235 5.312 1.812 3.11 2.36 6.5.562 3.375.312 5.922zM52.575 62.628q1.594-.766 4.14-2.61 2.547-1.843 4.594-4.406 2.047-2.562 3.438-5.812 1.39-3.25 1.75-7.36.297-3.578-.422-5.843-.703-2.266-2.016-3.547-1.312-1.281-3.047-1.844-1.718-.562-3.484-.562-1.64 0-3.375.5-1.734.484-3.86-.219.86-1.36 1.563-.656.297.437.563.937.281.485.468 1.485-1.875 7.906-2.968 12.984-1.078 5.078-1.797 8.281-.844 3.719-1.235 6-.078.266-.109.563-.031.297-1.281.125 1.765-.89 3.844.015 2.078.907 3.234 1.97z"/><path fill="#000" d="M94.762 86.44q-5.828 0-10.468-2.328-4.64-2.343-7.266-6.468-2.625-4.125-2.625-9.375t2.625-9.375q2.625-4.14 7.266-6.438 4.64-2.297 10.468-2.297 5.875 0 10.516 2.297 4.64 2.297 7.234 6.438 2.594 4.125 2.594 9.375t-2.594 9.375q-2.593 4.125-7.234 6.468-4.64 2.329-10.516 2.329zm0-11.265q2.485 0 4.079-1.813 1.609-1.828 1.609-5.093 0-3.266-1.61-5.063-1.593-1.797-4.078-1.797-2.5 0-4.109 1.797-1.594 1.797-1.594 5.063 0 3.265 1.594 5.093 1.61 1.813 4.11 1.813zm38.58 11.266q-4.469 0-8.828-.954-4.344-.968-7.032-2.5l3.954-9.546q2.437 1.484 5.765 2.312 3.328.828 6.469.828 2.5 0 3.484-.406 1-.422 1-1.25 0-.844-1.25-1.156-1.25-.328-4.062-.64-4.297-.517-7.313-1.313-3-.797-5.28-3.094-2.267-2.313-2.267-6.61 0-3.39 2.047-6.078 2.047-2.687 6.11-4.28 4.078-1.595 9.765-1.595 3.97 0 7.782.735 3.812.734 6.5 2.14l-3.97 9.532q-4.609-2.563-10.124-2.563-4.735 0-4.735 1.672 0 .828 1.282 1.187 1.281.344 4.031.672 4.297.5 7.266 1.344 2.984.828 5.25 3.14 2.28 2.298 2.28 6.579 0 3.265-2.062 5.953-2.047 2.687-6.14 4.297-4.094 1.594-9.922 1.594zm38.144-36.282q9.219 0 14.078 4.125 4.875 4.125 4.875 12.703V85.8h-13.437v-4.61q-2.5 5.25-9.922 5.25-4.172 0-7.078-1.437-2.906-1.437-4.422-3.906-1.5-2.469-1.5-5.531 0-5.188 3.969-7.875 3.968-2.688 12.03-2.688h5.83q-.704-4.094-6.595-4.094-2.36 0-4.797.735-2.437.734-4.156 2.015l-4.61-9.547q3-1.843 7.25-2.89 4.266-1.063 8.485-1.063zm-.062 27.578q1.547 0 2.75-.828 1.218-.843 1.797-2.5v-2.437h-3.579q-4.421 0-4.421 2.953 0 1.219.921 2.016.938.796 2.532.796zm39.036-23.171q3.844-4.407 11.328-4.407v12.797q-1.718-.265-3.187-.265-7.438 0-7.438 7.562V85.8H196.71V50.784h13.75v3.782zm15.434-3.782h14.453V85.8h-14.453V50.784zm7.219-2.812q-3.906 0-6.313-2.078-2.39-2.078-2.39-5.282 0-3.203 2.39-5.28 2.407-2.079 6.313-2.079 3.969 0 6.328 1.984 2.375 1.985 2.375 5.125 0 3.329-2.375 5.47-2.36 2.14-6.328 2.14zm32.145 38.469q-5.828 0-10.469-2.329-4.64-2.343-7.265-6.468t-2.625-9.375q0-5.25 2.625-9.375 2.625-4.14 7.265-6.438 4.641-2.297 10.47-2.297 5.874 0 10.515 2.297 4.64 2.297 7.234 6.438 2.594 4.125 2.594 9.375t-2.594 9.375q-2.594 4.125-7.234 6.468-4.64 2.329-10.516 2.329zm0-11.266q2.485 0 4.078-1.813 1.61-1.828 1.61-5.093 0-3.266-1.61-5.063-1.593-1.797-4.078-1.797-2.5 0-4.11 1.797-1.593 1.797-1.593 5.063 0 3.265 1.594 5.093 1.61 1.813 4.11 1.813zm41.858 20.375q-1.297-.875-1.375-2.078-.094-1.203.453-2.14.406-.829 1.265-1.673.36-.328 1.125-2.343.782-2 1.735-5.11.969-3.125 1.937-6.844.969-3.734 1.828-7.296.86-3.579 1.47-6.594.624-3.031.937-4.797.39-2.203.859-4.766.375-2.25.844-5.234t.953-7.563l7.11-3.187q2.656-1.25 3.75.562 1.109 1.797.437 5.22-.235 1.405-.86 4.593-.625 3.172-1.453 6.984-.828 3.797-1.734 7.766-.89 3.969-1.766 7.047-.781 2.89-1.797 6.64-1.796 6.422-4.812 16.844.266.438 2.281.438 2.844 0 6.844-2.313 4.016-2.312 7.906-7.094 3.89-4.796 6.875-12.093 3-7.313 3.75-17.125.375-5.219-.5-9.078-.875-3.875-2.578-6.375-1.703-2.516-4.11-3.735-2.406-1.219-5.374-1.219-7.328 0-17.797 8.141l-.61-10.312q2.72-3.032 5.547-4.344 2.828-1.313 5.235-1.969 2.859-.766 5.797-.844 5.359 0 10.343 2.063 4.985 2.047 8.625 6.234 3.64 4.172 5.532 10.39 1.89 6.22 1.328 14.407-.328 4.734-1.907 9.781-1.578 5.047-4.109 9.875-2.531 4.813-6 9.172-3.469 4.344-7.625 7.64-4.14 3.313-8.937 5.25-4.782 1.938-10 1.938-1.704-.093-3.579-.609-1.656-.422-3.703-1.453-2.031-1.016-4.14-2.797zm90.109-27.281q0 .312-.203 3.39h-24.313q.766 1.985 2.547 3.047 1.797 1.047 4.485 1.047 2.312 0 3.875-.578 1.578-.578 3.422-1.984l7.562 7.625q-5.125 5.625-15.297 5.625-6.344 0-11.14-2.329-4.797-2.343-7.422-6.5-2.625-4.171-2.625-9.343 0-5.25 2.593-9.375 2.594-4.14 7.094-6.438 4.516-2.297 10.156-2.297 5.313 0 9.688 2.11 4.39 2.11 6.984 6.203 2.594 4.094 2.594 9.797zm-19.14-8.266q-2.235 0-3.72 1.219-1.468 1.219-1.906 3.453h11.25q-.437-2.172-1.921-3.422-1.47-1.25-3.704-1.25zm56.869 40.328q-4.359 0-7.875-2.094-3.515-2.078-5.937-5.64-2.406-3.547-3.61-8.203-1.187-4.672-1.03-9.907.156-4.828 1.234-10.421 1.078-5.594 3.078-11.22 2-5.624 4.844-10.89 2.859-5.265 6.609-9.344 3.766-4.093 8.437-6.64 4.688-2.547 10.344-2.547 3.64 0 6.235 1.5 2.593 1.5 4.156 3.906 1.562 2.406 2.156 5.313.594 2.906.516 5.86-.172 2.75-.797 5.358-.625 2.594-1.828 4.766-1.188 2.156-3.078 3.563-1.891 1.406-4.454 1.406-1.421-.125-2.609-.875-.984-.594-1.984-1.735-1-1.14-2.407-4.734 3.094-1.25 4.11-3.047 1.015-1.812 1.594-3.953.656-2.5.875-5.61.125-2.452-.86-3.437-.984-.984-2.172-.984-3.015 0-6.75 3.515-3.718 3.5-7.093 9.829-3.36 6.312-5.704 14.812-2.328 8.484-2.703 17.984-.156 4.141.516 6.938.687 2.781 1.844 4.422 1.156 1.656 2.515 2.328 1.36.687 2.688.687 2.36 0 4.5-1.046 2.156-1.032 4-2.641 1.86-1.594 3.203-3.313 1.36-1.718 2.078-3 .844-1.546 2.172-2.046 1.344-.516 2.422.296 1.094.813 1.36 2.141.28 1.313-.423 2.844-1.406 2.797-3.422 5.578-2 2.781-4.546 5.062-2.532 2.297-5.625 3.75-3.079 1.47-6.579 1.47z"/><path fill="#000" d="M487.923 50.16q6.469 0 10.406 3.906 3.938 3.89 3.938 11.765V85.8h-14.469V68.331q0-6.015-4.281-6.015-2.438 0-3.953 1.703-1.5 1.687-1.5 5.328V85.8H463.61V38.316h14.453v15.296q4.047-3.453 9.86-3.453zm20.616.624h14.453V85.8h-14.453V50.784zm7.218-2.812q-3.906 0-6.312-2.078-2.39-2.078-2.39-5.282 0-3.203 2.39-5.28 2.406-2.079 6.312-2.079 3.97 0 6.329 1.984 2.375 1.985 2.375 5.125 0 3.329-2.375 5.47-2.36 2.14-6.329 2.14zm29.317 2.187q9.22 0 14.079 4.125 4.875 4.125 4.875 12.703V85.8H550.59v-4.61q-2.5 5.25-9.922 5.25-4.172 0-7.078-1.437-2.906-1.437-4.422-3.906-1.5-2.469-1.5-5.531 0-5.188 3.969-7.875 3.969-2.688 12.031-2.688h5.828q-.703-4.094-6.593-4.094-2.36 0-4.797.735-2.438.734-4.157 2.015l-4.609-9.547q3-1.843 7.25-2.89 4.266-1.063 8.484-1.063zm-.062 27.578q1.547 0 2.75-.828 1.219-.843 1.797-2.5v-2.437h-3.578q-4.422 0-4.422 2.953 0 1.219.922 2.016.937.796 2.531.796zm39.037-23.171q3.843-4.407 11.328-4.407v12.797q-1.72-.265-3.188-.265-7.437 0-7.437 7.562V85.8h-14.453V50.784h13.75v3.782zm30.785-4.407q9.22 0 14.078 4.125 4.875 4.125 4.875 12.703V85.8H620.35v-4.61q-2.5 5.25-9.922 5.25-4.172 0-7.078-1.437-2.906-1.437-4.422-3.906-1.5-2.469-1.5-5.531 0-5.188 3.969-7.875 3.969-2.688 12.031-2.688h5.828q-.703-4.094-6.594-4.094-2.359 0-4.796.735-2.438.734-4.157 2.015l-4.609-9.547q3-1.843 7.25-2.89 4.266-1.063 8.484-1.063zm-.062 27.578q1.547 0 2.75-.828 1.219-.843 1.797-2.5v-2.437h-3.578q-4.422 0-4.422 2.953 0 1.219.922 2.016.937.796 2.53.796z"/></g></svg>