<svg width="24" height="24" xmlns="http://www.w3.org/2000/svg" fill-rule="evenodd" clip-rule="evenodd"><path d="M19 24H5a5 5 0 01-5-5V5a5 5 0 015-5h14a5 5 0 015 5v14a5 5 0 01-5 5zm.97-5.649v-.269l-1.247-1.224a.374.374 0 01-.142-.359V7.501a.374.374 0 01.142-.359L20 5.918v-.269h-4.422l-3.152 7.863L8.84 5.649H4.202v.269l1.494 1.799a.623.623 0 01.201.523v7.072a.814.814 0 01-.216.702L4 18.052v.269h4.766v-.269l-1.681-2.038a.847.847 0 01-.232-.702V9.196l4.183 9.125h.486l3.593-9.125v7.273c0 .194 0 .232-.127.359l-1.292 1.254v.269h6.274z"/></svg>